<svg version="1.1" id="Layer_1" xmlns="http://www.w3.org/2000/svg" xmlns:xlink="http://www.w3.org/1999/xlink" x="0px" y="0px"
	 width="100%" viewBox="0 0 586 197" enable-background="new 0 0 586 197" xml:space="preserve">
<path fill="#000000" opacity="1.000000" stroke="none" 
	d="
M1.000001,144.000000 
	C1.000000,96.358551 1.000000,48.717110 1.000000,1.057007 
	C196.333344,1.057007 391.666687,1.057007 587.000000,1.057007 
	C587.000000,33.430237 587.000000,65.746460 586.581726,98.648270 
	C581.144226,98.275337 576.654053,99.744774 573.881287,103.797462 
	C567.979492,112.423546 562.240234,121.206726 557.121216,130.311646 
	C549.654358,143.592346 543.670532,157.781998 535.416992,170.523468 
	C527.657898,182.501602 518.937378,185.104828 508.496033,170.781708 
	C498.244476,156.718948 489.031006,141.903091 478.925140,127.729156 
	C472.474701,118.682129 462.555817,114.212959 454.386719,118.665527 
	C448.205872,122.034424 443.067352,127.659943 438.147278,132.919464 
	C430.159607,141.458252 423.186035,150.973038 414.950439,159.245667 
	C404.642029,169.600464 394.915985,167.919174 384.696228,159.669693 
	C376.533997,153.081024 369.585602,145.006424 361.576233,138.206482 
	C348.317230,126.949646 336.908295,123.789635 321.020813,134.467209 
	C313.679962,139.400803 306.639771,144.783722 299.491455,150.001465 
	C285.294891,160.363876 271.178864,159.981781 256.669983,150.368362 
	C250.281601,146.135529 243.386215,142.583328 236.459579,139.268372 
	C227.328506,134.898376 217.486923,133.049896 207.708084,136.121216 
	C198.221161,139.100815 189.150925,143.396713 179.867493,147.037521 
	C169.652756,151.043579 159.336472,154.868484 148.104614,151.949768 
	C141.966888,150.354813 135.796356,148.659302 129.927902,146.295837 
	C109.207657,137.950989 88.542992,136.752411 66.980240,143.654709 
	C56.020950,147.162811 44.207478,149.476730 32.760845,149.556366 
	C22.187298,149.629929 11.587974,145.999237 1.000001,144.000000 
M30.809166,118.512535 
	C30.870281,97.044258 30.940025,75.575996 30.951057,54.107689 
	C30.951389,53.460213 30.337965,52.812420 29.083387,52.034996 
	C24.052052,52.078259 19.020716,52.121521 13.190831,52.487465 
	C13.129717,73.955742 13.059973,95.424004 13.048941,116.892311 
	C13.048608,117.539787 13.662032,118.187584 14.916610,118.965004 
	C19.947945,118.921738 24.979280,118.878471 30.809166,118.512535 
M312.919464,118.964523 
	C317.950562,118.921394 322.981628,118.878258 328.810364,118.511108 
	C328.819122,109.348297 328.827881,100.185478 328.964813,90.116798 
	C328.980347,87.955734 328.769562,85.764870 329.049652,83.638649 
	C330.432312,73.142159 333.741943,63.942005 348.661499,70.055763 
	C350.300995,65.319077 352.017975,60.624847 353.484467,55.853645 
	C353.722382,55.079578 353.102722,53.384357 352.450043,53.099747 
	C347.876801,51.105553 343.111664,48.214993 338.122986,51.078754 
	C334.489014,53.164829 331.454071,56.294361 328.207489,58.913963 
	C327.506195,52.040821 329.496490,51.958267 320.461975,52.006725 
	C317.638641,52.021870 314.815674,52.110321 311.181335,52.465294 
	C311.122894,73.948662 311.055878,95.432037 311.047638,116.915421 
	C311.047394,117.555092 311.663666,118.194992 312.919464,118.964523 
M50.910419,118.964447 
	C55.611919,118.920410 60.313423,118.876381 65.777756,118.460129 
	C65.802017,99.303696 65.826279,80.147263 66.007713,60.588711 
	C66.007713,60.588711 66.114006,60.170246 66.539658,60.125278 
	C66.539658,60.125278 66.964050,60.180794 67.287537,60.775303 
	C76.689117,75.870621 87.443115,90.319969 95.060364,106.267563 
	C101.052849,118.813515 109.567757,120.438889 121.818619,118.534737 
	C121.877083,88.718132 121.941719,58.901524 121.952667,29.084894 
	C121.952904,28.445112 121.336304,27.805103 120.079918,27.035467 
	C115.164421,27.035467 110.248924,27.035467 105.000504,27.035467 
	C105.000504,37.827801 105.000504,47.944164 105.000504,58.060528 
	C105.000504,67.966957 105.000504,77.873383 105.000504,87.779816 
	C93.895050,71.728264 83.850441,55.772762 74.305077,39.523987 
	C66.967583,27.033609 67.247063,26.866697 52.966640,27.007694 
	C51.971996,27.017515 50.978176,27.111063 49.206470,27.518690 
	C49.140781,57.297962 49.068794,87.077225 49.050270,116.856529 
	C49.049862,117.515610 49.659039,118.175056 50.910419,118.964447 
M223.820694,106.582283 
	C223.877853,95.093369 223.951004,83.604446 223.950104,72.115532 
	C223.950058,71.465347 223.341919,70.815208 222.085236,70.035713 
	C209.501862,70.035713 196.918472,70.035713 184.268173,70.035713 
	C184.268173,75.636894 184.268173,80.557686 184.268173,86.084099 
	C191.236359,86.084099 197.958908,86.084099 204.590576,86.084099 
	C205.849991,97.930054 205.767792,98.527771 196.176758,102.291412 
	C177.922699,109.454529 163.448105,103.163971 158.443512,85.487968 
	C155.539032,75.229446 155.610580,64.276794 160.557800,54.651642 
	C162.981598,49.935974 167.901443,45.211784 172.791458,43.289982 
	C189.484116,36.729645 199.900497,43.684528 204.988098,55.982273 
	C210.642853,54.919243 216.310852,53.853718 221.962631,52.791245 
	C219.518875,39.044460 208.470810,28.281601 197.324402,27.059189 
	C189.759628,26.229568 182.059677,25.707859 174.482025,26.137985 
	C163.212463,26.777670 154.352478,32.488060 147.775757,41.587040 
	C137.423721,55.909187 135.958069,71.860886 140.299652,88.410431 
	C142.589127,97.137672 146.451965,105.309532 154.092621,111.046036 
	C166.565994,120.410889 180.563934,122.980774 195.523270,119.871910 
	C205.602448,117.777229 215.364120,114.460754 223.820694,106.582283 
M448.079987,27.035641 
	C439.603851,27.035641 431.127747,27.035641 422.529755,27.035641 
	C417.056519,47.760693 411.647552,68.242432 406.238586,88.724174 
	C400.125702,69.344986 395.106171,50.108440 389.930542,30.913986 
	C389.539612,29.464323 388.077881,27.234072 387.046021,27.195751 
	C378.803009,26.889631 370.543549,27.024843 362.271240,27.024843 
	C362.271240,57.995693 362.271240,88.238663 362.271240,118.640152 
	C367.919891,118.640152 373.291809,118.640152 379.134613,118.640152 
	C379.134613,95.340485 379.134613,72.396095 379.134613,49.451698 
	C380.181152,50.606888 380.690033,51.786358 380.987183,53.016968 
	C386.006073,73.801559 390.945984,94.605621 396.112305,115.353355 
	C396.466705,116.776772 398.392334,118.716133 399.720825,118.827881 
	C404.653992,119.242805 409.643066,118.993271 414.547455,118.993271 
	C420.345947,95.369843 426.034454,72.194435 431.722961,49.019035 
	C432.204559,49.096039 432.686157,49.173046 433.167755,49.250053 
	C433.167755,63.510700 433.167755,77.771347 433.035522,92.956734 
	C433.024414,100.117485 432.955444,107.278992 433.049927,114.438347 
	C433.069397,115.911942 433.699097,117.377472 434.967133,118.967155 
	C439.648254,118.922577 444.329376,118.878006 449.777100,118.465637 
	C449.847687,88.696968 449.924652,58.928310 449.947784,29.159603 
	C449.948303,28.495499 449.336700,27.830921 448.079987,27.035641 
M274.380554,64.976410 
	C278.948059,69.888206 278.133057,74.157455 272.087036,75.863289 
	C267.545288,77.144714 262.732147,77.559471 258.297363,79.100960 
	C252.514633,81.110954 245.952393,82.684349 241.585251,86.547760 
	C234.614059,92.714859 234.442978,104.164902 239.390060,111.916779 
	C243.919739,119.014565 254.616547,123.073067 263.229584,120.228142 
	C268.656342,118.435646 273.708710,115.509781 278.216400,113.422356 
	C279.889740,115.161140 281.491058,118.316116 283.626678,118.732872 
	C288.032410,119.592644 292.723175,118.991722 296.363861,118.991722 
	C295.545227,111.277718 294.400940,104.006767 294.092316,96.700523 
	C293.704224,87.511543 294.040619,78.293465 293.988403,69.088371 
	C293.940399,60.627514 289.885895,53.975571 281.723358,52.262573 
	C274.509064,50.748569 266.859070,51.100887 259.397339,51.023994 
	C247.489761,50.901287 241.585617,58.278313 238.058609,68.496506 
	C240.069992,68.963028 241.811172,69.671745 243.568970,69.715591 
	C248.243515,69.832207 253.916321,73.339226 256.664246,66.050804 
	C257.021973,65.101982 258.727295,64.109604 259.827026,64.088112 
	C264.478455,63.997189 269.136871,64.265686 274.380554,64.976410 
M490.750122,49.975994 
	C489.158325,50.312115 487.571533,50.910233 485.973877,50.941013 
	C476.917297,51.115505 468.255737,58.358551 466.190521,68.734070 
	C470.673798,69.482620 475.137360,70.295021 479.628021,70.909332 
	C480.347900,71.007805 481.490265,70.432411 481.927826,69.810242 
	C486.877167,62.772629 492.877899,60.564945 500.386383,64.233543 
	C502.572052,65.301460 504.013519,68.827248 504.713409,71.508926 
	C504.968201,72.485252 502.298340,75.077499 500.573822,75.569725 
	C493.226929,77.666794 485.616486,78.869072 478.319672,81.106949 
	C463.361237,85.694611 460.484375,101.481125 467.720795,112.359451 
	C473.159912,120.535927 486.525543,123.695137 496.395203,118.814507 
	C499.974915,117.044304 503.186981,114.530670 506.061096,112.681618 
	C507.740997,114.919868 509.010437,118.373062 510.830566,118.692963 
	C515.547546,119.522011 520.506958,118.971176 524.387695,118.971176 
	C523.562134,111.706673 522.394897,104.953636 522.119507,98.164444 
	C521.735291,88.692619 522.279541,79.184120 521.931091,69.709549 
	C521.655029,62.205879 519.294250,54.109585 507.733063,51.948143 
	C502.441345,50.958805 497.026825,50.626259 490.750122,49.975994 
M13.008786,40.247463 
	C13.666786,41.153320 14.292773,42.815136 14.987886,42.844574 
	C20.209223,43.065674 25.444183,42.965034 30.988432,42.965034 
	C30.988432,38.338646 31.238394,34.361942 30.841972,30.450750 
	C30.716785,29.215647 28.932461,27.262209 27.786558,27.171921 
	C23.057182,26.799284 18.281385,27.015806 13.001814,27.015806 
	C13.001814,31.433834 13.001814,35.363266 13.008786,40.247463 
z"/>
<path fill="#000000" opacity="1.000000" stroke="none" 
	d="
M587.000000,102.000000 
	C587.000000,133.980896 587.000000,165.961777 587.000000,197.948212 
	C391.666656,197.953766 196.333328,197.953766 1.000000,197.953766 
	C1.000000,181.250793 1.000000,164.594055 1.417931,147.487198 
	C2.812097,147.145416 3.794417,147.215195 4.763628,147.368073 
	C14.471316,148.899384 24.132111,151.249664 33.893738,151.791962 
	C47.658607,152.556625 60.769581,148.028320 73.903908,144.485779 
	C83.533463,141.888519 93.414711,139.289017 103.170364,141.389557 
	C115.104950,143.959290 126.696526,148.172897 138.373123,151.875305 
	C149.474091,155.395218 160.639801,156.650436 171.755783,152.534256 
	C181.415390,148.957367 190.919296,144.935669 200.378571,140.848068 
	C212.581879,135.574738 224.533951,135.371735 236.355499,141.836090 
	C242.966248,145.451019 249.734329,148.813187 256.137634,152.765411 
	C270.835175,161.836929 285.376526,162.823410 299.899872,152.644516 
	C307.144165,147.567230 314.083496,142.039490 321.471924,137.189423 
	C325.391479,134.616440 329.789215,132.147842 334.297760,131.220718 
	C345.059326,129.007767 353.713226,133.874771 361.465668,140.957291 
	C370.246887,148.979736 378.651123,157.585800 388.268738,164.472473 
	C397.471252,171.061935 406.181122,170.470078 413.833282,163.344131 
	C422.567291,155.210693 430.081207,145.756805 438.020660,136.784103 
	C443.243805,130.881165 447.732971,124.115723 455.375458,121.010399 
	C460.288422,119.014160 465.520569,118.803040 469.772186,122.519600 
	C473.495148,125.774048 477.173615,129.304398 479.989349,133.330048 
	C488.880280,146.041443 497.078033,159.241104 506.071075,171.876694 
	C515.358032,184.925293 527.268860,187.215759 537.151123,172.441772 
	C541.338806,166.181152 545.358643,159.761871 548.873962,153.107880 
	C555.381653,140.789963 561.043274,128.010300 567.878113,115.885658 
	C571.933044,108.692413 575.945862,100.132172 587.000000,102.000000 
z"/>
<path fill="#5C9A5F" opacity="1.000000" stroke="none" 
	d="
M587.000000,101.625000 
	C575.945862,100.132172 571.933044,108.692413 567.878113,115.885658 
	C561.043274,128.010300 555.381653,140.789963 548.873962,153.107880 
	C545.358643,159.761871 541.338806,166.181152 537.151123,172.441772 
	C527.268860,187.215759 515.358032,184.925293 506.071075,171.876694 
	C497.078033,159.241104 488.880280,146.041443 479.989349,133.330048 
	C477.173615,129.304398 473.495148,125.774048 469.772186,122.519600 
	C465.520569,118.803040 460.288422,119.014160 455.375458,121.010399 
	C447.732971,124.115723 443.243805,130.881165 438.020660,136.784103 
	C430.081207,145.756805 422.567291,155.210693 413.833282,163.344131 
	C406.181122,170.470078 397.471252,171.061935 388.268738,164.472473 
	C378.651123,157.585800 370.246887,148.979736 361.465668,140.957291 
	C353.713226,133.874771 345.059326,129.007767 334.297760,131.220718 
	C329.789215,132.147842 325.391479,134.616440 321.471924,137.189423 
	C314.083496,142.039490 307.144165,147.567230 299.899872,152.644516 
	C285.376526,162.823410 270.835175,161.836929 256.137634,152.765411 
	C249.734329,148.813187 242.966248,145.451019 236.355499,141.836090 
	C224.533951,135.371735 212.581879,135.574738 200.378571,140.848068 
	C190.919296,144.935669 181.415390,148.957367 171.755783,152.534256 
	C160.639801,156.650436 149.474091,155.395218 138.373123,151.875305 
	C126.696526,148.172897 115.104950,143.959290 103.170364,141.389557 
	C93.414711,139.289017 83.533463,141.888519 73.903908,144.485779 
	C60.769581,148.028320 47.658607,152.556625 33.893738,151.791962 
	C24.132111,151.249664 14.471316,148.899384 4.763628,147.368073 
	C3.794417,147.215195 2.812097,147.145416 1.417931,147.018539 
	C1.000000,146.250000 1.000000,145.500000 1.000001,144.375000 
	C11.587974,145.999237 22.187298,149.629929 32.760845,149.556366 
	C44.207478,149.476730 56.020950,147.162811 66.980240,143.654709 
	C88.542992,136.752411 109.207657,137.950989 129.927902,146.295837 
	C135.796356,148.659302 141.966888,150.354813 148.104614,151.949768 
	C159.336472,154.868484 169.652756,151.043579 179.867493,147.037521 
	C189.150925,143.396713 198.221161,139.100815 207.708084,136.121216 
	C217.486923,133.049896 227.328506,134.898376 236.459579,139.268372 
	C243.386215,142.583328 250.281601,146.135529 256.669983,150.368362 
	C271.178864,159.981781 285.294891,160.363876 299.491455,150.001465 
	C306.639771,144.783722 313.679962,139.400803 321.020813,134.467209 
	C336.908295,123.789635 348.317230,126.949646 361.576233,138.206482 
	C369.585602,145.006424 376.533997,153.081024 384.696228,159.669693 
	C394.915985,167.919174 404.642029,169.600464 414.950439,159.245667 
	C423.186035,150.973038 430.159607,141.458252 438.147278,132.919464 
	C443.067352,127.659943 448.205872,122.034424 454.386719,118.665527 
	C462.555817,114.212959 472.474701,118.682129 478.925140,127.729156 
	C489.031006,141.903091 498.244476,156.718948 508.496033,170.781708 
	C518.937378,185.104828 527.657898,182.501602 535.416992,170.523468 
	C543.670532,157.781998 549.654358,143.592346 557.121216,130.311646 
	C562.240234,121.206726 567.979492,112.423546 573.881287,103.797462 
	C576.654053,99.744774 581.144226,98.275337 586.581726,99.116928 
	C587.000000,99.750000 587.000000,100.500000 587.000000,101.625000 
z"/>
<path fill="#1565C0" opacity="1.000000" stroke="none" 
	d="
M433.167725,92.031998 
	C433.167755,77.771347 433.167755,63.510700 433.167755,49.250053 
	C432.686157,49.173046 432.204559,49.096039 431.722961,49.019035 
	C426.034454,72.194435 420.345947,95.369843 414.547455,118.993271 
	C409.643066,118.993271 404.653992,119.242805 399.720825,118.827881 
	C398.392334,118.716133 396.466705,116.776772 396.112305,115.353355 
	C390.945984,94.605621 386.006073,73.801559 380.987183,53.016968 
	C380.690033,51.786358 380.181152,50.606888 379.134613,49.451698 
	C379.134613,72.396095 379.134613,95.340485 379.134613,118.640152 
	C373.291809,118.640152 367.919891,118.640152 362.271240,118.640152 
	C362.271240,88.238663 362.271240,57.995693 362.271240,27.024843 
	C370.543549,27.024843 378.803009,26.889631 387.046021,27.195751 
	C388.077881,27.234072 389.539612,29.464323 389.930542,30.913986 
	C395.106171,50.108440 400.125702,69.344986 406.238586,88.724174 
	C411.647552,68.242432 417.056519,47.760693 422.529755,27.035641 
	C431.127747,27.035641 439.603851,27.035641 448.543732,27.559187 
	C449.008484,58.332966 449.009491,88.583199 449.010498,118.833435 
	C444.329376,118.878006 439.648254,118.922577 434.503906,118.448174 
	C433.749695,109.296791 433.458710,100.664398 433.167725,92.031998 
z"/>
<path fill="#1665C0" opacity="1.000000" stroke="none" 
	d="
M223.092926,107.053864 
	C215.364120,114.460754 205.602448,117.777229 195.523270,119.871910 
	C180.563934,122.980774 166.565994,120.410889 154.092621,111.046036 
	C146.451965,105.309532 142.589127,97.137672 140.299652,88.410431 
	C135.958069,71.860886 137.423721,55.909187 147.775757,41.587040 
	C154.352478,32.488060 163.212463,26.777670 174.482025,26.137985 
	C182.059677,25.707859 189.759628,26.229568 197.324402,27.059189 
	C208.470810,28.281601 219.518875,39.044460 221.962631,52.791245 
	C216.310852,53.853718 210.642853,54.919243 204.988098,55.982273 
	C199.900497,43.684528 189.484116,36.729645 172.791458,43.289982 
	C167.901443,45.211784 162.981598,49.935974 160.557800,54.651642 
	C155.610580,64.276794 155.539032,75.229446 158.443512,85.487968 
	C163.448105,103.163971 177.922699,109.454529 196.176758,102.291412 
	C205.767792,98.527771 205.849991,97.930054 204.590576,86.084099 
	C197.958908,86.084099 191.236359,86.084099 184.268173,86.084099 
	C184.268173,80.557686 184.268173,75.636894 184.268173,70.035713 
	C196.918472,70.035713 209.501862,70.035713 222.549240,70.558456 
	C223.039810,83.072083 223.066360,95.062973 223.092926,107.053864 
z"/>
<path fill="#1565C0" opacity="1.000000" stroke="none" 
	d="
M66.114006,60.170246 
	C66.114006,60.170246 66.007713,60.588711 65.788147,61.178173 
	C65.380516,64.066933 65.035477,66.365822 65.029526,68.665596 
	C64.986320,85.387749 65.011421,102.110069 65.014923,118.832344 
	C60.313423,118.876381 55.611919,118.920410 50.449398,118.441254 
	C49.986912,87.667267 49.985443,57.416473 49.983974,27.165678 
	C50.978176,27.111063 51.971996,27.017515 52.966640,27.007694 
	C67.247063,26.866697 66.967583,27.033609 74.305077,39.523987 
	C83.850441,55.772762 93.895050,71.728264 105.000504,87.779816 
	C105.000504,77.873383 105.000504,67.966957 105.000504,58.060528 
	C105.000504,47.944164 105.000504,37.827801 105.000504,27.035467 
	C110.248924,27.035467 115.164421,27.035467 120.542557,27.558264 
	C121.005943,58.332306 121.006691,88.583557 121.007439,118.834801 
	C109.567757,120.438889 101.052849,118.813515 95.060364,106.267563 
	C87.443115,90.319969 76.689117,75.870621 67.017998,60.448597 
	C66.533592,60.076195 66.322105,60.092316 66.114006,60.170246 
z"/>
<path fill="#1666C0" opacity="1.000000" stroke="none" 
	d="
M274.086670,64.689606 
	C269.136871,64.265686 264.478455,63.997189 259.827026,64.088112 
	C258.727295,64.109604 257.021973,65.101982 256.664246,66.050804 
	C253.916321,73.339226 248.243515,69.832207 243.568970,69.715591 
	C241.811172,69.671745 240.069992,68.963028 238.058609,68.496506 
	C241.585617,58.278313 247.489761,50.901287 259.397339,51.023994 
	C266.859070,51.100887 274.509064,50.748569 281.723358,52.262573 
	C289.885895,53.975571 293.940399,60.627514 293.988403,69.088371 
	C294.040619,78.293465 293.704224,87.511543 294.092316,96.700523 
	C294.400940,104.006767 295.545227,111.277718 296.363861,118.991722 
	C292.723175,118.991722 288.032410,119.592644 283.626678,118.732872 
	C281.491058,118.316116 279.889740,115.161140 278.216400,113.422356 
	C273.708710,115.509781 268.656342,118.435646 263.229584,120.228142 
	C254.616547,123.073067 243.919739,119.014565 239.390060,111.916779 
	C234.442978,104.164902 234.614059,92.714859 241.585251,86.547760 
	C245.952393,82.684349 252.514633,81.110954 258.297363,79.100960 
	C262.732147,77.559471 267.545288,77.144714 272.087036,75.863289 
	C278.133057,74.157455 278.948059,69.888206 274.086670,64.689606 
M255.408203,93.153542 
	C252.373199,100.091629 254.321686,106.797478 259.991760,107.828117 
	C264.658295,108.676338 269.097076,107.650505 272.974426,104.544670 
	C279.231689,99.532494 276.314697,92.798180 277.123657,85.659904 
	C269.542145,88.147232 262.762604,90.371437 255.408203,93.153542 
z"/>
<path fill="#1666C0" opacity="1.000000" stroke="none" 
	d="
M491.209045,49.985920 
	C497.026825,50.626259 502.441345,50.958805 507.733063,51.948143 
	C519.294250,54.109585 521.655029,62.205879 521.931091,69.709549 
	C522.279541,79.184120 521.735291,88.692619 522.119507,98.164444 
	C522.394897,104.953636 523.562134,111.706673 524.387695,118.971176 
	C520.506958,118.971176 515.547546,119.522011 510.830566,118.692963 
	C509.010437,118.373062 507.740997,114.919868 506.061096,112.681618 
	C503.186981,114.530670 499.974915,117.044304 496.395203,118.814507 
	C486.525543,123.695137 473.159912,120.535927 467.720795,112.359451 
	C460.484375,101.481125 463.361237,85.694611 478.319672,81.106949 
	C485.616486,78.869072 493.226929,77.666794 500.573822,75.569725 
	C502.298340,75.077499 504.968201,72.485252 504.713409,71.508926 
	C504.013519,68.827248 502.572052,65.301460 500.386383,64.233543 
	C492.877899,60.564945 486.877167,62.772629 481.927826,69.810242 
	C481.490265,70.432411 480.347900,71.007805 479.628021,70.909332 
	C475.137360,70.295021 470.673798,69.482620 466.190521,68.734070 
	C468.255737,58.358551 476.917297,51.115505 485.973877,50.941013 
	C487.571533,50.910233 489.158325,50.312115 491.209045,49.985920 
M486.762390,91.063538 
	C481.723328,93.929207 480.497131,96.775932 481.621613,101.274918 
	C483.470612,108.672783 491.798615,109.727921 498.198334,106.182175 
	C504.700287,102.579826 506.449585,96.596283 504.335327,86.102478 
	C498.720795,87.696075 493.120758,89.285545 486.762390,91.063538 
z"/>
<path fill="#1565C0" opacity="1.000000" stroke="none" 
	d="
M311.992554,52.165218 
	C314.815674,52.110321 317.638641,52.021870 320.461975,52.006725 
	C329.496490,51.958267 327.506195,52.040821 328.207489,58.913963 
	C331.454071,56.294361 334.489014,53.164829 338.122986,51.078754 
	C343.111664,48.214993 347.876801,51.105553 352.450043,53.099747 
	C353.102722,53.384357 353.722382,55.079578 353.484467,55.853645 
	C352.017975,60.624847 350.300995,65.319077 348.661499,70.055763 
	C333.741943,63.942005 330.432312,73.142159 329.049652,83.638649 
	C328.769562,85.764870 328.980347,87.955734 328.696228,90.928482 
	C328.289307,100.771820 328.151001,109.803467 328.012726,118.835121 
	C322.981628,118.878258 317.950562,118.921394 312.457092,118.441727 
	C311.994019,96.001022 311.993286,74.083122 311.992554,52.165218 
z"/>
<path fill="#1565C0" opacity="1.000000" stroke="none" 
	d="
M13.989380,52.164783 
	C19.020716,52.121521 24.052052,52.078259 29.545300,52.557938 
	C30.008347,74.998985 30.009481,96.917099 30.010616,118.835213 
	C24.979280,118.878471 19.947945,118.921738 14.454699,118.442062 
	C13.991652,96.000999 13.990517,74.082893 13.989380,52.164783 
z"/>
<path fill="#1565C0" opacity="1.000000" stroke="none" 
	d="
M13.005301,39.770081 
	C13.001814,35.363266 13.001814,31.433834 13.001814,27.015806 
	C18.281385,27.015806 23.057182,26.799284 27.786558,27.171921 
	C28.932461,27.262209 30.716785,29.215647 30.841972,30.450750 
	C31.238394,34.361942 30.988432,38.338646 30.988432,42.965034 
	C25.444183,42.965034 20.209223,43.065674 14.987886,42.844574 
	C14.292773,42.815136 13.666786,41.153320 13.005301,39.770081 
z"/>
<path fill="#2771C5" opacity="1.000000" stroke="none" 
	d="
M449.393799,118.649536 
	C449.009491,88.583199 449.008484,58.332966 449.009033,27.624649 
	C449.336700,27.830921 449.948303,28.495499 449.947784,29.159603 
	C449.924652,58.928310 449.847687,88.696968 449.393799,118.649536 
z"/>
<path fill="#74A4DA" opacity="1.000000" stroke="none" 
	d="
M121.413025,118.684769 
	C121.006691,88.583557 121.005943,58.332306 121.006317,27.623131 
	C121.336304,27.805103 121.952904,28.445112 121.952667,29.084894 
	C121.941719,58.901524 121.877083,88.718132 121.413025,118.684769 
z"/>
<path fill="#3A7DCA" opacity="1.000000" stroke="none" 
	d="
M49.595222,27.342184 
	C49.985443,57.416473 49.986912,87.667267 49.986118,118.376198 
	C49.659039,118.175056 49.049862,117.515610 49.050270,116.856529 
	C49.068794,87.077225 49.140781,57.297962 49.595222,27.342184 
z"/>
<path fill="#5992D2" opacity="1.000000" stroke="none" 
	d="
M13.590105,52.326126 
	C13.990517,74.082893 13.991652,96.000999 13.991047,118.377167 
	C13.662032,118.187584 13.048608,117.539787 13.048941,116.892311 
	C13.059973,95.424004 13.129717,73.955742 13.590105,52.326126 
z"/>
<path fill="#5992D2" opacity="1.000000" stroke="none" 
	d="
M30.409891,118.673874 
	C30.009481,96.917099 30.008347,74.998985 30.008953,52.622826 
	C30.337965,52.812420 30.951389,53.460213 30.951057,54.107689 
	C30.940025,75.575996 30.870281,97.044258 30.409891,118.673874 
z"/>
<path fill="#74A4DA" opacity="1.000000" stroke="none" 
	d="
M311.586945,52.315254 
	C311.993286,74.083122 311.994019,96.001022 311.993591,118.376862 
	C311.663666,118.194992 311.047394,117.555092 311.047638,116.915421 
	C311.055878,95.432037 311.122894,73.948662 311.586945,52.315254 
z"/>
<path fill="#2872C5" opacity="1.000000" stroke="none" 
	d="
M65.396339,118.646240 
	C65.011421,102.110069 64.986320,85.387749 65.029526,68.665596 
	C65.035477,66.365822 65.380516,64.066933 65.709557,61.379234 
	C65.826279,80.147263 65.802017,99.303696 65.396339,118.646240 
z"/>
<path fill="#5992D2" opacity="1.000000" stroke="none" 
	d="
M223.456802,106.818069 
	C223.066360,95.062973 223.039810,83.072083 223.015015,70.623123 
	C223.341919,70.815208 223.950058,71.465347 223.950104,72.115532 
	C223.951004,83.604446 223.877853,95.093369 223.456802,106.818069 
z"/>
<path fill="#5992D2" opacity="1.000000" stroke="none" 
	d="
M328.411560,118.673111 
	C328.151001,109.803467 328.289307,100.771820 328.632111,91.381416 
	C328.827881,100.185478 328.819122,109.348297 328.411560,118.673111 
z"/>
<path fill="#2972C6" opacity="1.000000" stroke="none" 
	d="
M433.101624,92.494370 
	C433.458710,100.664398 433.749695,109.296791 434.044067,118.387955 
	C433.699097,117.377472 433.069397,115.911942 433.049927,114.438347 
	C432.955444,107.278992 433.024414,100.117485 433.101624,92.494370 
z"/>
<path fill="#2872C5" opacity="1.000000" stroke="none" 
	d="
M66.326828,60.147762 
	C66.322105,60.092316 66.533592,60.076195 66.856255,60.151344 
	C66.964050,60.180794 66.539658,60.125278 66.326828,60.147762 
z"/>
<path fill="#000000" opacity="1.000000" stroke="none" 
	d="
M255.695633,92.874596 
	C262.762604,90.371437 269.542145,88.147232 277.123657,85.659904 
	C276.314697,92.798180 279.231689,99.532494 272.974426,104.544670 
	C269.097076,107.650505 264.658295,108.676338 259.991760,107.828117 
	C254.321686,106.797478 252.373199,100.091629 255.695633,92.874596 
z"/>
<path fill="#000000" opacity="1.000000" stroke="none" 
	d="
M487.141571,90.969284 
	C493.120758,89.285545 498.720795,87.696075 504.335327,86.102478 
	C506.449585,96.596283 504.700287,102.579826 498.198334,106.182175 
	C491.798615,109.727921 483.470612,108.672783 481.621613,101.274918 
	C480.497131,96.775932 481.723328,93.929207 487.141571,90.969284 
z"/>
</svg>