<svg version="1.1" id="Layer_1" xmlns="http://www.w3.org/2000/svg" xmlns:xlink="http://www.w3.org/1999/xlink" x="0px" y="0px"
	 width="100%" viewBox="0 0 600 197" enable-background="new 0 0 600 197" xml:space="preserve">
<path fill="#FCFDFE" opacity="1.000000" stroke="none" 
	d="
M1.000000,146.000000 
	C1.000000,97.691696 1.000000,49.383392 1.000000,1.056973 
	C201.000000,1.056973 401.000000,1.056973 601.000000,1.056973 
	C601.000000,34.096859 601.000000,67.079773 600.556030,100.536598 
	C592.586853,99.583160 587.357971,103.514229 583.877563,109.253380 
	C576.925964,120.716293 570.374023,132.443436 564.151672,144.320587 
	C557.834045,156.379562 551.990967,168.675262 542.311340,178.947510 
	C534.490417,183.178223 530.726074,182.914993 524.792969,176.613632 
	C520.272278,171.812439 516.183899,166.537598 512.393372,161.129913 
	C505.363434,151.100677 499.077545,140.532501 491.761658,130.726028 
	C484.553192,121.063568 473.520172,115.285439 462.772156,120.886772 
	C462.020752,118.746613 461.542725,116.871201 461.001923,114.530975 
	C460.977661,105.711777 461.016174,97.357399 461.345764,88.705078 
	C461.738983,69.494881 461.849304,50.582668 461.903351,31.670292 
	C461.904938,31.115953 461.313507,30.559921 460.698059,29.709003 
	C453.651245,29.269182 446.904541,29.011961 440.158813,29.036400 
	C437.450806,29.046207 434.744995,29.674850 431.763336,30.167747 
	C431.306519,31.539089 431.124573,32.764511 430.943756,34.309364 
	C430.661713,35.426147 430.378540,36.223495 429.781433,37.211838 
	C428.465729,41.772327 427.463959,46.141811 426.464081,50.775261 
	C426.339813,51.365780 426.213654,51.692341 425.774292,52.210251 
	C424.332153,57.269371 423.203217,62.137138 422.052307,67.333458 
	C421.883118,68.073532 421.735962,68.485054 421.327545,68.953423 
	C421.039185,69.673790 421.012115,70.337318 420.973694,71.329056 
	C420.821960,72.069458 420.681549,72.481659 420.286377,72.954437 
	C419.999634,73.670822 419.967621,74.326630 419.920837,75.311081 
	C419.762726,76.051758 419.619476,76.463799 419.229675,76.940887 
	C418.935913,77.660759 418.888733,78.315590 418.843109,79.259552 
	C418.648804,80.081749 418.452942,80.614815 418.051727,81.152557 
	C417.746918,81.248665 417.552155,81.406921 417.562347,81.421455 
	C417.702972,81.622017 417.871765,81.802818 418.020905,82.320404 
	C417.852936,83.064957 417.697754,83.477562 417.279510,83.954605 
	C415.915710,84.048523 414.814941,84.078003 413.588684,83.866211 
	C413.412598,83.268303 413.362030,82.911652 413.446106,82.267258 
	C413.337128,81.665146 413.093536,81.350792 412.765137,80.879944 
	C412.680359,80.723457 412.708984,80.368637 412.814331,80.035965 
	C412.619080,79.133682 412.318542,78.564079 411.889771,77.708954 
	C411.643646,76.810333 411.525726,76.197227 411.565552,75.281898 
	C411.346649,74.278297 410.970062,73.576927 410.438080,72.581848 
	C410.231171,71.850098 410.179596,71.412056 410.337982,70.833099 
	C410.205475,70.089584 409.862976,69.486977 409.370117,68.589729 
	C409.153473,67.861107 409.087250,67.427132 409.272339,66.769577 
	C408.167236,62.328754 406.810822,58.111526 405.296906,53.576103 
	C404.959412,52.331352 404.779449,51.404797 404.730835,50.058315 
	C404.004883,45.938766 403.345947,42.178032 402.230591,38.557911 
	C401.252991,35.384686 399.763092,32.369274 398.071045,29.192455 
	C388.756104,29.070351 379.869568,29.039940 370.889038,28.841457 
	C370.638184,28.886839 370.481415,29.100286 370.222961,29.252480 
	C370.121277,29.191223 370.350006,29.254745 369.959839,29.414312 
	C369.383240,30.530476 369.035034,31.486898 369.033997,32.443699 
	C369.003693,60.409538 368.995117,88.375443 369.050079,116.341209 
	C369.052490,117.556129 369.689575,118.769798 370.013977,119.988724 
	C369.996979,119.993401 370.025818,119.969818 370.058777,120.232475 
	C370.384796,120.659485 370.677917,120.823830 371.439636,120.993141 
	C377.134125,120.923126 382.359955,120.848152 387.976654,120.612930 
	C388.572662,118.678146 388.948639,116.904366 388.956329,115.128983 
	C389.024994,99.219643 389.020050,83.309990 389.064941,67.400513 
	C389.069580,65.755310 389.257416,64.110619 389.360260,62.465694 
	C389.635376,62.499695 389.910461,62.533695 390.185577,62.567696 
	C391.513123,66.020279 392.840668,69.472862 394.330383,73.150604 
	C394.584442,73.916443 394.676392,74.457115 394.536255,75.263336 
	C395.711945,80.387985 397.119720,85.247086 398.668579,90.404419 
	C398.868195,91.136116 398.926758,91.569588 398.731689,92.227219 
	C399.713898,96.605026 400.949768,100.758667 402.358093,105.186432 
	C402.674988,106.308968 402.819397,107.157372 402.745667,108.142273 
	C402.853638,108.890038 403.179779,109.501305 403.653290,110.408218 
	C403.860657,111.137573 403.920624,111.571274 403.729553,112.217972 
	C404.332153,114.950081 405.185791,117.469215 406.353149,120.264778 
	C411.084564,120.698692 415.523529,120.643333 419.913116,121.081856 
	C423.348114,121.424995 425.156433,120.160759 426.071381,116.755798 
	C426.580505,115.080894 426.785980,113.539146 426.990387,111.668106 
	C427.119507,110.921944 427.249695,110.505081 427.712067,109.972740 
	C429.036377,105.238853 430.028473,100.620453 431.022705,95.673660 
	C431.156647,94.929901 431.288422,94.514534 431.731445,93.992508 
	C432.365265,91.924095 432.687836,89.962364 433.014709,87.671707 
	C433.152435,86.927162 433.285919,86.511536 433.729980,85.989594 
	C434.364655,83.922211 434.688751,81.961151 435.015015,79.671547 
	C435.150391,78.928032 435.283569,78.513054 435.728210,77.991638 
	C436.358826,75.922020 436.678040,73.958839 437.000122,71.666985 
	C437.143433,70.925529 437.283813,70.512756 437.735474,69.999176 
	C438.377197,67.933052 438.707672,65.967735 439.043518,63.675064 
	C439.191193,62.937531 439.333496,62.527348 439.755066,62.062145 
	C440.915436,61.703972 441.796478,61.400822 442.757202,61.552299 
	C442.845276,67.334122 442.853699,72.661324 442.627258,78.177017 
	C442.548798,79.247032 442.705261,80.128555 442.925110,81.468735 
	C442.966431,85.948997 442.944366,89.970612 442.639954,94.297127 
	C442.254150,102.468559 442.083649,110.335533 442.137054,118.200989 
	C442.143311,119.123993 443.382141,120.038635 444.513153,120.972267 
	C449.987427,121.005615 454.998138,121.023849 460.005127,121.363953 
	C460.031006,122.113297 460.060608,122.540764 459.834839,123.187225 
	C454.415924,128.799194 449.167664,134.114075 444.109955,139.604523 
	C437.484802,146.796509 431.466614,154.614380 424.356171,161.275848 
	C415.268860,169.789291 407.067322,169.994904 396.911011,162.819473 
	C392.190918,159.484741 388.105438,155.265015 383.608185,151.598724 
	C376.187042,145.548782 368.665161,139.622391 360.916687,133.400879 
	C351.042786,128.215759 341.464478,128.291046 332.337555,134.061447 
	C324.898193,138.764923 317.604370,143.755966 310.614655,149.101547 
	C295.660614,160.538101 280.271088,162.456558 263.777008,152.558426 
	C257.219177,148.623062 250.453690,145.016785 243.665497,141.486145 
	C231.971451,135.403915 219.763107,134.479233 207.392151,139.003036 
	C200.371353,141.570404 193.581009,144.777328 186.723618,147.780151 
	C173.238220,153.685333 159.441483,156.404617 144.959412,151.886002 
	C139.399536,150.151230 133.822998,148.415436 128.401230,146.302444 
	C110.894943,139.479904 93.213074,138.412659 75.068382,143.614471 
	C60.682926,147.738556 46.237541,152.389984 31.008314,150.858307 
	C20.944466,149.846130 10.998656,147.660355 1.000000,146.000000 
M481.167450,87.189674 
	C481.167450,87.189674 481.327942,87.359413 480.737061,87.352036 
	C480.465729,87.835213 480.194397,88.318390 479.706024,89.090248 
	C479.706024,89.090248 479.394104,89.272415 478.676636,89.355225 
	C478.209320,90.351059 477.742035,91.346893 477.116089,92.881210 
	C476.941559,93.211090 476.767029,93.540962 475.957520,94.092812 
	C475.601257,96.399315 475.244965,98.705826 474.973297,101.753395 
	C474.944855,102.497566 474.916443,103.241730 474.381897,104.492508 
	C474.419922,108.969513 475.195892,113.111145 479.812805,115.915565 
	C480.029694,116.112457 480.192596,116.346870 480.352844,117.218773 
	C480.692474,117.383804 481.032135,117.548828 481.963867,118.065430 
	C484.642578,119.388199 487.237488,121.581337 490.017822,121.849167 
	C495.489014,122.376213 501.063202,121.834084 507.157349,121.807404 
	C507.443665,121.582077 507.729950,121.356750 508.379730,120.915100 
	C508.379730,120.915100 508.800232,120.869797 509.474213,120.953148 
	C509.967590,120.563095 510.460938,120.173042 511.139801,119.576920 
	C511.139801,119.576920 511.416077,119.553062 512.063477,119.634712 
	C512.320618,119.316742 512.577698,118.998772 513.237305,118.182724 
	C514.443604,117.293938 515.649963,116.405151 517.077698,116.181160 
	C518.056763,117.119438 519.035828,118.057709 520.439453,119.663101 
	C526.166199,120.288071 531.893005,120.913048 538.884888,121.676094 
	C532.864868,108.561081 535.236267,96.132011 534.830261,83.925819 
	C534.681091,79.439842 534.959229,74.925690 534.576660,70.464317 
	C533.747742,60.796574 528.883972,54.649673 519.399902,53.396072 
	C511.439423,52.343868 503.135223,52.265209 495.173492,53.267262 
	C485.571472,54.475761 479.706940,60.895866 477.046509,70.849030 
	C481.920654,71.533440 486.477966,72.278801 491.064392,72.722992 
	C491.919220,72.805786 493.124786,71.870575 493.771851,71.080383 
	C498.702545,65.058937 505.157104,63.296654 512.271118,65.991013 
	C515.761536,67.312988 516.891968,69.953773 517.149109,73.363182 
	C517.434448,77.146088 514.320557,77.039345 512.136719,77.660286 
	C502.890076,80.289406 493.590729,82.733383 483.736267,85.226425 
	C483.500549,85.509010 483.264832,85.791588 482.781036,86.313232 
	C482.781036,86.313232 482.459442,86.436935 481.878632,86.369965 
	C481.707916,86.683929 481.537231,86.997894 481.167450,87.189674 
M124.634956,80.500076 
	C124.634956,63.434456 124.634956,46.368835 124.634956,29.354046 
	C118.283333,29.354046 112.872520,29.354046 106.784294,29.354046 
	C106.784294,49.063637 106.784294,68.401062 106.784294,87.738487 
	C104.676620,86.575142 103.654388,85.134224 102.719818,83.638535 
	C92.212769,66.823044 81.746254,49.982079 71.177940,33.205219 
	C70.178848,31.619184 68.653069,29.353237 67.218033,29.232622 
	C61.676495,28.766861 56.072559,29.043499 50.487282,29.043499 
	C50.487282,60.080185 50.487282,90.318550 50.487282,120.754669 
	C56.273399,120.754669 61.695023,120.754669 67.853760,120.754669 
	C67.853760,101.514572 67.853760,82.529243 67.853760,63.543911 
	C70.291832,65.116829 71.557030,66.986359 72.758942,68.895721 
	C82.877434,84.969925 92.950348,101.073051 103.149178,117.096069 
	C104.130646,118.638008 105.794868,120.685493 107.275726,120.802116 
	C112.850746,121.241173 118.481056,120.978279 124.634567,120.978279 
	C124.634567,107.415894 124.634567,94.457993 124.634956,80.500076 
M173.389359,46.702805 
	C187.918091,39.219582 200.375778,42.480789 208.367828,55.777859 
	C208.878113,56.626831 210.095749,57.750015 210.836105,57.649879 
	C216.388153,56.898949 221.902924,55.872448 227.752777,54.877163 
	C225.375397,44.106232 220.102203,35.965229 210.573288,31.654936 
	C195.910980,25.022598 180.709564,24.780329 166.065674,31.538620 
	C148.442810,39.671738 138.960541,59.703323 141.698502,80.972000 
	C143.847031,97.661766 150.528458,111.628304 166.809738,118.476952 
	C187.741180,127.281662 207.555527,123.296082 226.006393,111.043442 
	C227.594925,109.988556 228.889206,107.304062 228.949417,105.334663 
	C229.249435,95.519234 228.987976,85.688057 229.153488,75.866280 
	C229.206497,72.720505 228.020828,71.890518 225.061874,71.925163 
	C213.740250,72.057701 202.416229,71.980186 191.093201,72.012955 
	C190.314377,72.015205 189.536316,72.278778 188.614700,72.446953 
	C188.614700,77.620499 188.614700,82.524292 188.614700,88.074570 
	C195.799850,88.074570 202.689362,88.074570 209.455841,88.074570 
	C211.215897,99.023064 210.319397,100.701569 200.807510,104.329330 
	C198.331696,105.273575 195.752655,106.040199 193.155090,106.556717 
	C178.998245,109.371712 166.107239,101.984428 162.932129,87.965012 
	C161.247025,80.524506 161.434372,72.479729 161.918930,64.779625 
	C162.386490,57.349754 166.376633,51.288406 173.389359,46.702805 
M295.128510,57.342724 
	C282.547638,49.915558 269.365601,50.384312 256.210388,55.076206 
	C249.350189,57.522953 245.709152,63.308128 243.811462,70.841431 
	C248.663269,71.531921 253.059769,72.292847 257.488922,72.684578 
	C258.487396,72.772896 260.076782,71.839005 260.583466,70.925850 
	C264.357697,64.123810 270.585754,64.583443 276.800537,65.371300 
	C281.141113,65.921577 283.560516,68.689613 283.885010,73.117561 
	C284.226135,77.773338 280.203949,77.210854 277.661804,77.934052 
	C269.683441,80.203781 261.325684,81.402557 253.637146,84.369591 
	C240.543686,89.422401 237.504303,106.676643 247.372284,116.738159 
	C255.214249,124.733925 270.186035,125.187668 280.549652,117.739029 
	C281.977325,116.712914 283.389313,115.664925 284.699677,114.706680 
	C286.349274,117.083069 287.484650,120.448074 289.058075,120.667137 
	C294.155396,121.376854 299.413452,120.932228 303.271332,120.932228 
	C302.667450,111.179977 301.980865,102.160652 301.587708,93.128555 
	C301.233582,84.992569 301.723480,76.782509 300.797028,68.725189 
	C300.361328,64.936127 297.473999,61.428963 295.128510,57.342724 
M338.969910,76.862869 
	C342.894348,67.762001 349.904785,69.539871 357.244568,72.248322 
	C358.785492,67.612930 360.043488,63.310909 361.658783,59.147511 
	C362.780090,56.257324 361.744568,54.956989 359.179016,53.795795 
	C351.561401,50.348003 344.884155,51.628132 339.419739,57.972416 
	C338.492401,59.049084 338.026001,60.522785 337.346619,61.813049 
	C336.863220,61.397575 336.379791,60.982098 335.896393,60.566624 
	C335.651703,58.493572 335.407013,56.420517 335.170227,54.414249 
	C329.581238,54.414249 324.362213,54.414249 319.200226,54.414249 
	C319.200226,76.744278 319.200226,98.634705 319.200226,120.645508 
	C325.130737,120.645508 330.678101,120.645508 336.721893,120.645508 
	C336.721893,114.489891 336.480133,108.684212 336.779175,102.906532 
	C337.216125,94.465126 338.041260,86.043816 338.969910,76.862869 
M31.657600,68.506790 
	C31.657600,63.765511 31.657600,59.024231 31.657600,54.232422 
	C25.185341,54.232422 19.590992,54.232422 13.687152,54.232422 
	C13.687152,76.521217 13.687152,98.531738 13.687152,120.661980 
	C19.740892,120.661980 25.448858,120.661980 31.657207,120.661980 
	C31.657207,103.361511 31.657207,86.433197 31.657600,68.506790 
M30.048656,29.044827 
	C24.636471,29.044827 19.224285,29.044827 13.628511,29.044827 
	C13.628511,34.611259 13.628511,39.512909 13.628511,44.731369 
	C19.635365,44.731369 25.345285,44.731369 31.952209,44.731369 
	C31.589434,39.396996 31.247587,34.370411 30.048656,29.044827 
z"/>
<path fill="#FEFEFE" opacity="1.000000" stroke="none" 
	d="
M601.000000,105.000000 
	C601.000000,135.981720 601.000000,166.963425 601.000000,197.949829 
	C401.000000,197.954529 201.000000,197.954529 1.000000,197.954529 
	C1.000000,181.918472 1.000000,165.927902 1.376323,149.555954 
	C11.263710,150.762665 20.723986,152.854004 30.297813,153.820175 
	C44.460896,155.249496 58.067833,151.598434 71.556953,147.769073 
	C85.140427,143.912918 98.857307,141.323654 112.867439,145.051437 
	C120.737251,147.145416 128.549225,149.592178 136.170853,152.455978 
	C153.245041,158.871521 169.989609,158.710892 186.649857,151.129120 
	C193.161819,148.165649 199.727219,145.303879 206.364212,142.634293 
	C218.270294,137.845352 230.092316,138.011902 241.588562,143.992081 
	C248.373901,147.521713 255.182663,151.041489 261.738434,154.970291 
	C277.983368,164.705719 293.842651,164.709961 309.429077,153.657623 
	C315.803833,149.137283 322.036285,144.415710 328.426331,139.917648 
	C337.951538,133.212677 348.141449,130.560501 359.611084,135.587067 
	C365.932587,140.965714 372.022766,146.096924 378.158142,151.173477 
	C384.669739,156.561310 390.920807,162.333710 397.837860,167.144089 
	C406.265869,173.005264 417.012695,172.168503 424.650421,165.291580 
	C430.426758,160.090637 435.614899,154.227341 440.965393,148.564850 
	C448.250031,140.855438 454.957977,132.519501 462.820251,125.462860 
	C469.321838,119.627472 477.171356,120.757065 483.495728,126.831268 
	C485.767029,129.012680 488.083862,131.252487 489.860870,133.824295 
	C497.416962,144.760025 504.491852,156.039581 512.327209,166.766449 
	C516.483154,172.456009 521.339172,177.882324 526.786499,182.311539 
	C532.367737,186.849594 539.229370,185.526932 544.607971,180.352280 
	C547.998657,176.589355 551.722473,173.315765 554.006714,169.236130 
	C561.213135,156.365372 567.651794,143.065063 574.842773,130.185150 
	C579.025024,122.694267 583.878357,115.549034 588.817078,108.520477 
	C591.725464,104.381416 595.879333,102.498276 601.000000,105.000000 
z"/>
<path fill="#7FAD82" opacity="1.000000" stroke="none" 
	d="
M359.399628,135.315582 
	C348.141449,130.560501 337.951538,133.212677 328.426331,139.917648 
	C322.036285,144.415710 315.803833,149.137283 309.429077,153.657623 
	C293.842651,164.709961 277.983368,164.705719 261.738434,154.970291 
	C255.182663,151.041489 248.373901,147.521713 241.588562,143.992081 
	C230.092316,138.011902 218.270294,137.845352 206.364212,142.634293 
	C199.727219,145.303879 193.161819,148.165649 186.649857,151.129120 
	C169.989609,158.710892 153.245041,158.871521 136.170853,152.455978 
	C128.549225,149.592178 120.737251,147.145416 112.867439,145.051437 
	C98.857307,141.323654 85.140427,143.912918 71.556953,147.769073 
	C58.067833,151.598434 44.460896,155.249496 30.297813,153.820175 
	C20.723986,152.854004 11.263710,150.762665 1.376323,149.087296 
	C1.000000,148.250000 1.000000,147.500000 1.000000,146.375000 
	C10.998656,147.660355 20.944466,149.846130 31.008314,150.858307 
	C46.237541,152.389984 60.682926,147.738556 75.068382,143.614471 
	C93.213074,138.412659 110.894943,139.479904 128.401230,146.302444 
	C133.822998,148.415436 139.399536,150.151230 144.959412,151.886002 
	C159.441483,156.404617 173.238220,153.685333 186.723618,147.780151 
	C193.581009,144.777328 200.371353,141.570404 207.392151,139.003036 
	C219.763107,134.479233 231.971451,135.403915 243.665497,141.486145 
	C250.453690,145.016785 257.219177,148.623062 263.777008,152.558426 
	C280.271088,162.456558 295.660614,160.538101 310.614655,149.101547 
	C317.604370,143.755966 324.898193,138.764923 332.337555,134.061447 
	C341.464478,128.291046 351.042786,128.215759 360.700500,133.757080 
	C360.302155,134.676071 359.850891,134.995834 359.399628,135.315582 
z"/>
<path fill="#87AB8A" opacity="1.000000" stroke="none" 
	d="
M601.000000,104.600006 
	C595.879333,102.498276 591.725464,104.381416 588.817078,108.520477 
	C583.878357,115.549034 579.025024,122.694267 574.842773,130.185150 
	C567.651794,143.065063 561.213135,156.365372 554.006714,169.236130 
	C551.722473,173.315765 547.998657,176.589355 544.407837,180.003525 
	C543.462830,179.452454 543.043579,179.129684 542.624268,178.806915 
	C551.990967,168.675262 557.834045,156.379562 564.151672,144.320587 
	C570.374023,132.443436 576.925964,120.716293 583.877563,109.253380 
	C587.357971,103.514229 592.586853,99.583160 600.556030,101.005257 
	C601.000000,102.066673 601.000000,103.133339 601.000000,104.600006 
z"/>
<path fill="#1F69BE" opacity="1.000000" stroke="none" 
	d="
M410.128021,70.974014 
	C410.179596,71.412056 410.231171,71.850098 410.332031,72.871643 
	C410.723511,74.164810 411.065674,74.874474 411.407837,75.584137 
	C411.525726,76.197227 411.643646,76.810333 411.829163,78.031235 
	C412.167511,79.215569 412.438232,79.792107 412.708984,80.368637 
	C412.708984,80.368637 412.680359,80.723457 412.728088,81.159302 
	C412.954346,81.915108 413.132904,82.235062 413.311493,82.555008 
	C413.362030,82.911652 413.412598,83.268303 413.550964,84.248100 
	C414.125458,86.680824 414.612213,88.490387 415.098938,90.299957 
	C415.492218,90.305351 415.885468,90.310745 416.278748,90.316139 
	C416.700012,88.174149 417.121277,86.032158 417.542542,83.890167 
	C417.697754,83.477562 417.852936,83.064957 418.161255,82.132767 
	C418.314392,81.613190 418.257080,81.147888 418.257080,81.147888 
	C418.452942,80.614815 418.648804,80.081749 419.089661,79.078369 
	C419.381836,78.030647 419.429016,77.453232 419.476196,76.875824 
	C419.619476,76.463799 419.762726,76.051758 420.165344,75.133087 
	C420.463531,74.048920 420.502319,73.471390 420.541138,72.893860 
	C420.681549,72.481659 420.821960,72.069458 421.213745,71.144073 
	C421.506348,70.052788 421.547577,69.474678 421.588806,68.896576 
	C421.735962,68.485054 421.883118,68.073532 422.319855,67.088608 
	C423.768768,61.683098 424.928162,56.850998 426.087524,52.018898 
	C426.213654,51.692341 426.339813,51.365780 426.701294,50.487999 
	C427.989563,45.631462 429.042480,41.326149 430.095398,37.020836 
	C430.378540,36.223495 430.661713,35.426147 431.192871,34.057785 
	C431.639954,32.331791 431.839081,31.176809 432.038208,30.021828 
	C434.744995,29.674850 437.450806,29.046207 440.158813,29.036400 
	C446.904541,29.011961 453.651245,29.269182 460.593109,30.167572 
	C460.877319,50.282219 460.966003,69.642624 461.054688,89.003029 
	C461.016174,97.357399 460.977661,105.711777 460.875000,114.903717 
	C460.543488,117.508224 460.276154,119.275154 460.008820,121.042084 
	C454.998138,121.023849 449.987427,121.005615 444.423462,120.559898 
	C443.554230,111.419014 443.238251,102.705620 442.922302,93.992218 
	C442.944366,89.970612 442.966431,85.948997 443.054382,81.101776 
	C443.034241,79.513611 442.948181,78.751068 442.862122,77.988525 
	C442.853699,72.661324 442.845276,67.334122 442.905457,61.121277 
	C442.974030,57.463882 442.974030,54.692127 442.974030,51.920376 
	C442.493683,51.885742 442.013336,51.851112 441.532990,51.816483 
	C440.847260,55.250046 440.161530,58.683609 439.475769,62.117172 
	C439.333496,62.527348 439.191193,62.937531 438.788147,63.921940 
	C438.159637,66.364105 437.791901,68.232040 437.424194,70.099976 
	C437.283813,70.512756 437.143433,70.925529 436.745239,71.913704 
	C436.130585,74.358765 435.773682,76.228416 435.416779,78.098076 
	C435.283569,78.513054 435.150391,78.928032 434.761566,79.920349 
	C434.143768,82.363762 433.781586,84.229836 433.419403,86.095909 
	C433.285919,86.511536 433.152435,86.927162 432.759857,87.919006 
	C432.140533,90.363197 431.780365,92.231186 431.420197,94.099167 
	C431.288422,94.514534 431.156647,94.929901 430.758423,95.933327 
	C429.454590,101.043663 428.417236,105.565941 427.379883,110.088226 
	C427.249695,110.505081 427.119507,110.921944 426.744568,111.939362 
	C426.255798,113.989601 426.011780,115.439278 425.767761,116.888954 
	C425.156433,120.160759 423.348114,121.424995 419.913116,121.081856 
	C415.523529,120.643333 411.084564,120.698692 406.389008,119.870804 
	C405.400940,116.801926 404.690735,114.403458 403.980560,112.004982 
	C403.920624,111.571274 403.860657,111.137573 403.762390,110.125168 
	C403.470642,109.032906 403.217194,108.519341 402.963806,108.005775 
	C402.819397,107.157372 402.674988,106.308968 402.402100,104.774956 
	C401.177551,100.060577 400.081451,96.031815 398.985352,92.003052 
	C398.926758,91.569588 398.868195,91.136116 398.759247,90.025261 
	C397.395386,84.564514 396.081879,79.781151 394.768372,74.997787 
	C394.676392,74.457115 394.584442,73.916443 394.377502,72.737076 
	C392.583557,65.104111 390.904663,58.109844 389.225769,51.115570 
	C388.679108,51.184006 388.132477,51.252438 387.585815,51.320873 
	C387.585815,74.471642 387.585815,97.622406 387.585815,120.773178 
	C382.359955,120.848152 377.134125,120.923126 371.337433,120.774895 
	C370.606293,120.247467 370.359375,120.053513 370.025818,119.969818 
	C370.025818,119.969818 369.996979,119.993401 370.113892,119.529953 
	C370.270538,89.129250 370.310272,59.191998 370.350006,29.254745 
	C370.350006,29.254745 370.121277,29.191223 370.419098,29.245447 
	C370.716919,29.299671 370.983063,29.009527 370.983063,29.009527 
	C379.869568,29.039940 388.756104,29.070351 398.130737,29.589424 
	C400.612396,36.878136 402.605927,43.678188 404.599487,50.478241 
	C404.779449,51.404797 404.959412,52.331352 405.212189,53.954109 
	C406.530304,58.764599 407.775665,62.878880 409.020996,66.993164 
	C409.087250,67.427132 409.153473,67.861107 409.259033,68.875435 
	C409.574951,69.961868 409.851471,70.467941 410.128021,70.974014 
z"/>
<path fill="#216ABE" opacity="1.000000" stroke="none" 
	d="
M124.634766,81.000084 
	C124.634567,94.457993 124.634567,107.415894 124.634567,120.978279 
	C118.481056,120.978279 112.850746,121.241173 107.275726,120.802116 
	C105.794868,120.685493 104.130646,118.638008 103.149178,117.096069 
	C92.950348,101.073051 82.877434,84.969925 72.758942,68.895721 
	C71.557030,66.986359 70.291832,65.116829 67.853760,63.543911 
	C67.853760,82.529243 67.853760,101.514572 67.853760,120.754669 
	C61.695023,120.754669 56.273399,120.754669 50.487282,120.754669 
	C50.487282,90.318550 50.487282,60.080185 50.487282,29.043499 
	C56.072559,29.043499 61.676495,28.766861 67.218033,29.232622 
	C68.653069,29.353237 70.178848,31.619184 71.177940,33.205219 
	C81.746254,49.982079 92.212769,66.823044 102.719818,83.638535 
	C103.654388,85.134224 104.676620,86.575142 106.784294,87.738487 
	C106.784294,68.401062 106.784294,49.063637 106.784294,29.354046 
	C112.872520,29.354046 118.283333,29.354046 124.634956,29.354046 
	C124.634956,46.368835 124.634956,63.434456 124.634766,81.000084 
z"/>
<path fill="#1E69BF" opacity="1.000000" stroke="none" 
	d="
M173.065552,46.882938 
	C166.376633,51.288406 162.386490,57.349754 161.918930,64.779625 
	C161.434372,72.479729 161.247025,80.524506 162.932129,87.965012 
	C166.107239,101.984428 178.998245,109.371712 193.155090,106.556717 
	C195.752655,106.040199 198.331696,105.273575 200.807510,104.329330 
	C210.319397,100.701569 211.215897,99.023064 209.455841,88.074570 
	C202.689362,88.074570 195.799850,88.074570 188.614700,88.074570 
	C188.614700,82.524292 188.614700,77.620499 188.614700,72.446953 
	C189.536316,72.278778 190.314377,72.015205 191.093201,72.012955 
	C202.416229,71.980186 213.740250,72.057701 225.061874,71.925163 
	C228.020828,71.890518 229.206497,72.720505 229.153488,75.866280 
	C228.987976,85.688057 229.249435,95.519234 228.949417,105.334663 
	C228.889206,107.304062 227.594925,109.988556 226.006393,111.043442 
	C207.555527,123.296082 187.741180,127.281662 166.809738,118.476952 
	C150.528458,111.628304 143.847031,97.661766 141.698502,80.972000 
	C138.960541,59.703323 148.442810,39.671738 166.065674,31.538620 
	C180.709564,24.780329 195.910980,25.022598 210.573288,31.654936 
	C220.102203,35.965229 225.375397,44.106232 227.752777,54.877163 
	C221.902924,55.872448 216.388153,56.898949 210.836105,57.649879 
	C210.095749,57.750015 208.878113,56.626831 208.367828,55.777859 
	C200.375778,42.480789 187.918091,39.219582 173.065552,46.882938 
z"/>
<path fill="#1F69BF" opacity="1.000000" stroke="none" 
	d="
M295.413086,57.568390 
	C297.473999,61.428963 300.361328,64.936127 300.797028,68.725189 
	C301.723480,76.782509 301.233582,84.992569 301.587708,93.128555 
	C301.980865,102.160652 302.667450,111.179977 303.271332,120.932228 
	C299.413452,120.932228 294.155396,121.376854 289.058075,120.667137 
	C287.484650,120.448074 286.349274,117.083069 284.699677,114.706680 
	C283.389313,115.664925 281.977325,116.712914 280.549652,117.739029 
	C270.186035,125.187668 255.214249,124.733925 247.372284,116.738159 
	C237.504303,106.676643 240.543686,89.422401 253.637146,84.369591 
	C261.325684,81.402557 269.683441,80.203781 277.661804,77.934052 
	C280.203949,77.210854 284.226135,77.773338 283.885010,73.117561 
	C283.560516,68.689613 281.141113,65.921577 276.800537,65.371300 
	C270.585754,64.583443 264.357697,64.123810 260.583466,70.925850 
	C260.076782,71.839005 258.487396,72.772896 257.488922,72.684578 
	C253.059769,72.292847 248.663269,71.531921 243.811462,70.841431 
	C245.709152,63.308128 249.350189,57.522953 256.210388,55.076206 
	C269.365601,50.384312 282.547638,49.915558 295.413086,57.568390 
M284.003571,92.730003 
	C283.888611,91.339272 283.773651,89.948532 283.624939,88.149773 
	C277.474060,89.711403 271.809082,90.912003 266.300232,92.616966 
	C261.080505,94.232452 259.073364,97.619469 259.840576,102.324272 
	C260.555328,106.707390 264.593658,109.916382 269.508026,110.006393 
	C278.363739,110.168579 283.619873,104.219337 284.003571,92.730003 
z"/>
<path fill="#1F6ABF" opacity="1.000000" stroke="none" 
	d="
M484.310669,85.245026 
	C493.590729,82.733383 502.890076,80.289406 512.136719,77.660286 
	C514.320557,77.039345 517.434448,77.146088 517.149109,73.363182 
	C516.891968,69.953773 515.761536,67.312988 512.271118,65.991013 
	C505.157104,63.296654 498.702545,65.058937 493.771851,71.080383 
	C493.124786,71.870575 491.919220,72.805786 491.064392,72.722992 
	C486.477966,72.278801 481.920654,71.533440 477.046509,70.849030 
	C479.706940,60.895866 485.571472,54.475761 495.173492,53.267262 
	C503.135223,52.265209 511.439423,52.343868 519.399902,53.396072 
	C528.883972,54.649673 533.747742,60.796574 534.576660,70.464317 
	C534.959229,74.925690 534.681091,79.439842 534.830261,83.925819 
	C535.236267,96.132011 532.864868,108.561081 538.884888,121.676094 
	C531.893005,120.913048 526.166199,120.288071 520.274841,118.980988 
	C519.041931,117.352234 520.841492,113.051819 516.856262,115.516373 
	C515.649963,116.405151 514.443604,117.293938 512.748169,118.481010 
	C511.977997,119.037216 511.697052,119.295143 511.416077,119.553070 
	C511.416077,119.553062 511.139801,119.576920 510.727356,119.688553 
	C509.810028,120.156715 509.305145,120.513260 508.800232,120.869797 
	C508.800232,120.869797 508.379730,120.915100 507.919464,120.996460 
	C507.171082,121.296631 506.882935,121.515450 506.594788,121.734261 
	C501.063202,121.834084 495.489014,122.376213 490.017822,121.849167 
	C487.237488,121.581337 484.642578,119.388199 481.574768,117.634750 
	C480.890930,117.008987 480.596252,116.813896 480.301544,116.618805 
	C480.192596,116.346870 480.029694,116.112457 479.538788,115.441544 
	C477.805878,111.306976 476.346954,107.646439 474.888031,103.985901 
	C474.916443,103.241730 474.944855,102.497566 475.114777,101.061493 
	C475.701691,98.203339 476.147095,96.037094 476.592529,93.870834 
	C476.767029,93.540962 476.941559,93.211090 477.488678,92.473595 
	C478.372192,91.134789 478.883148,90.203598 479.394104,89.272415 
	C479.394104,89.272415 479.706024,89.090248 480.082825,88.890442 
	C480.749054,88.246895 481.038483,87.803154 481.327942,87.359413 
	C481.327942,87.359413 481.167450,87.189674 481.508057,87.192436 
	C482.159912,87.029182 482.363525,86.776428 482.459442,86.436935 
	C482.459442,86.436935 482.781036,86.313232 483.179718,86.169510 
	C483.822479,85.765526 484.066589,85.505272 484.310669,85.245026 
M492.956635,99.747116 
	C493.547882,107.649582 499.080688,111.621368 506.612885,109.550415 
	C515.625000,107.072548 519.488708,98.741669 516.236206,88.307114 
	C510.809448,89.681160 505.175537,90.585327 499.993561,92.633102 
	C497.272675,93.708321 495.343140,96.786163 492.956635,99.747116 
z"/>
<path fill="#1F69BF" opacity="1.000000" stroke="none" 
	d="
M338.835449,77.238403 
	C338.041260,86.043816 337.216125,94.465126 336.779175,102.906532 
	C336.480133,108.684212 336.721893,114.489891 336.721893,120.645508 
	C330.678101,120.645508 325.130737,120.645508 319.200226,120.645508 
	C319.200226,98.634705 319.200226,76.744278 319.200226,54.414249 
	C324.362213,54.414249 329.581238,54.414249 335.170227,54.414249 
	C335.407013,56.420517 335.651703,58.493572 335.896393,60.566624 
	C336.379791,60.982098 336.863220,61.397575 337.346619,61.813049 
	C338.026001,60.522785 338.492401,59.049084 339.419739,57.972416 
	C344.884155,51.628132 351.561401,50.348003 359.179016,53.795795 
	C361.744568,54.956989 362.780090,56.257324 361.658783,59.147511 
	C360.043488,63.310909 358.785492,67.612930 357.244568,72.248322 
	C349.904785,69.539871 342.894348,67.762001 338.835449,77.238403 
z"/>
<path fill="#266EC0" opacity="1.000000" stroke="none" 
	d="
M31.657404,69.005829 
	C31.657207,86.433197 31.657207,103.361511 31.657207,120.661980 
	C25.448858,120.661980 19.740892,120.661980 13.687152,120.661980 
	C13.687152,98.531738 13.687152,76.521217 13.687152,54.232422 
	C19.590992,54.232422 25.185341,54.232422 31.657600,54.232422 
	C31.657600,59.024231 31.657600,63.765511 31.657404,69.005829 
z"/>
<path fill="#83AB86" opacity="1.000000" stroke="none" 
	d="
M542.311340,178.947525 
	C543.043579,179.129684 543.462830,179.452454 544.082275,180.123978 
	C539.229370,185.526932 532.367737,186.849594 526.786499,182.311539 
	C521.339172,177.882324 516.483154,172.456009 512.327209,166.766449 
	C504.491852,156.039581 497.416962,144.760025 489.860870,133.824295 
	C488.083862,131.252487 485.767029,129.012680 483.495728,126.831268 
	C477.171356,120.757065 469.321838,119.627472 462.820251,125.462860 
	C454.957977,132.519501 448.250031,140.855438 440.965393,148.564850 
	C435.614899,154.227341 430.426758,160.090637 424.650421,165.291580 
	C417.012695,172.168503 406.265869,173.005264 397.837860,167.144089 
	C390.920807,162.333710 384.669739,156.561310 378.158142,151.173477 
	C372.022766,146.096924 365.932587,140.965714 359.611084,135.587067 
	C359.850891,134.995834 360.302155,134.676071 360.969604,134.000122 
	C368.665161,139.622391 376.187042,145.548782 383.608185,151.598724 
	C388.105438,155.265015 392.190918,159.484741 396.911011,162.819473 
	C407.067322,169.994904 415.268860,169.789291 424.356171,161.275848 
	C431.466614,154.614380 437.484802,146.796509 444.109955,139.604523 
	C449.167664,134.114075 454.415924,128.799194 460.120300,123.113594 
	C461.455933,122.264496 462.250732,121.708023 463.045532,121.151535 
	C473.520172,115.285439 484.553192,121.063568 491.761658,130.726028 
	C499.077545,140.532501 505.363434,151.100677 512.393372,161.129913 
	C516.183899,166.537598 520.272278,171.812439 524.792969,176.613632 
	C530.726074,182.914993 534.490417,183.178223 542.311340,178.947525 
z"/>
<path fill="#2970C1" opacity="1.000000" stroke="none" 
	d="
M30.477200,29.194326 
	C31.247587,34.370411 31.589434,39.396996 31.952209,44.731369 
	C25.345285,44.731369 19.635365,44.731369 13.628511,44.731369 
	C13.628511,39.512909 13.628511,34.611259 13.628511,29.044827 
	C19.224285,29.044827 24.636471,29.044827 30.477200,29.194326 
z"/>
<path fill="#C2DDF6" opacity="1.000000" stroke="none" 
	d="
M387.976654,120.612930 
	C387.585815,97.622406 387.585815,74.471642 387.585815,51.320873 
	C388.132477,51.252438 388.679108,51.184006 389.225769,51.115570 
	C390.904663,58.109844 392.583557,65.104111 394.215363,72.511917 
	C392.840668,69.472862 391.513123,66.020279 390.185577,62.567696 
	C389.910461,62.533695 389.635376,62.499695 389.360260,62.465694 
	C389.257416,64.110619 389.069580,65.755310 389.064941,67.400513 
	C389.020050,83.309990 389.024994,99.219643 388.956329,115.128983 
	C388.948639,116.904366 388.572662,118.678146 387.976654,120.612930 
z"/>
<path fill="#C2DDF6" opacity="1.000000" stroke="none" 
	d="
M369.959839,29.414312 
	C370.310272,59.191998 370.270538,89.129250 370.130920,119.525276 
	C369.689575,118.769798 369.052490,117.556129 369.050079,116.341209 
	C368.995117,88.375443 369.003693,60.409538 369.033997,32.443699 
	C369.035034,31.486898 369.383240,30.530476 369.959839,29.414312 
z"/>
<path fill="#C2DDF6" opacity="1.000000" stroke="none" 
	d="
M461.345764,88.705078 
	C460.966003,69.642624 460.877319,50.282219 460.893616,30.463247 
	C461.313507,30.559921 461.904938,31.115953 461.903351,31.670292 
	C461.849304,50.582668 461.738983,69.494881 461.345764,88.705078 
z"/>
<path fill="#C2DDF6" opacity="1.000000" stroke="none" 
	d="
M404.730835,50.058311 
	C402.605927,43.678188 400.612396,36.878136 398.559174,29.681118 
	C399.763092,32.369274 401.252991,35.384686 402.230591,38.557911 
	C403.345947,42.178032 404.004883,45.938766 404.730835,50.058311 
z"/>
<path fill="#C2DDF6" opacity="1.000000" stroke="none" 
	d="
M442.639954,94.297127 
	C443.238251,102.705620 443.554230,111.419014 443.959900,120.544785 
	C443.382141,120.038635 442.143311,119.123993 442.137054,118.200989 
	C442.083649,110.335533 442.254150,102.468559 442.639954,94.297127 
z"/>
<path fill="#C2DDF6" opacity="1.000000" stroke="none" 
	d="
M439.755096,62.062149 
	C440.161530,58.683609 440.847260,55.250046 441.532990,51.816483 
	C442.013336,51.851112 442.493683,51.885742 442.974030,51.920376 
	C442.974030,54.692127 442.974030,57.463882 442.825775,60.666653 
	C441.796478,61.400822 440.915436,61.703972 439.755096,62.062149 
z"/>
<path fill="#C2DDF6" opacity="1.000000" stroke="none" 
	d="
M394.536255,75.263336 
	C396.081879,79.781151 397.395386,84.564514 398.618225,89.727020 
	C397.119720,85.247086 395.711945,80.387985 394.536255,75.263336 
z"/>
<path fill="#C2DDF6" opacity="1.000000" stroke="none" 
	d="
M425.774292,52.210251 
	C424.928162,56.850998 423.768768,61.683098 422.341858,66.760056 
	C423.203217,62.137138 424.332153,57.269371 425.774292,52.210251 
z"/>
<path fill="#C2DDF6" opacity="1.000000" stroke="none" 
	d="
M427.712036,109.972733 
	C428.417236,105.565941 429.454590,101.043663 430.756256,96.261719 
	C430.028473,100.620453 429.036377,105.238853 427.712036,109.972733 
z"/>
<path fill="#B8D5EF" opacity="1.000000" stroke="none" 
	d="
M474.634949,104.239204 
	C476.346954,107.646439 477.805878,111.306976 479.362610,115.317429 
	C475.195892,113.111145 474.419922,108.969513 474.634949,104.239204 
z"/>
<path fill="#C2DDF6" opacity="1.000000" stroke="none" 
	d="
M409.272339,66.769577 
	C407.775665,62.878880 406.530304,58.764599 405.369690,54.272308 
	C406.810822,58.111526 408.167236,62.328754 409.272339,66.769577 
z"/>
<path fill="#C2DDF6" opacity="1.000000" stroke="none" 
	d="
M429.781433,37.211838 
	C429.042480,41.326149 427.989563,45.631462 426.699402,50.224037 
	C427.463959,46.141811 428.465729,41.772327 429.781433,37.211838 
z"/>
<path fill="#C2DDF6" opacity="1.000000" stroke="none" 
	d="
M398.731689,92.227219 
	C400.081451,96.031815 401.177551,100.060577 402.229614,104.500824 
	C400.949768,100.758667 399.713898,96.605026 398.731689,92.227219 
z"/>
<path fill="#C2DDF6" opacity="1.000000" stroke="none" 
	d="
M417.279510,83.954605 
	C417.121277,86.032158 416.700012,88.174149 416.278748,90.316139 
	C415.885468,90.310745 415.492218,90.305351 415.098938,90.299957 
	C414.612213,88.490387 414.125458,86.680824 413.676453,84.489365 
	C414.814941,84.078003 415.915710,84.048523 417.279510,83.954605 
z"/>
<path fill="#C2DDF6" opacity="1.000000" stroke="none" 
	d="
M403.729553,112.217972 
	C404.690735,114.403458 405.400940,116.801926 406.075256,119.594376 
	C405.185791,117.469215 404.332153,114.950081 403.729553,112.217972 
z"/>
<path fill="#B8D5EF" opacity="1.000000" stroke="none" 
	d="
M476.275024,93.981827 
	C476.147095,96.037094 475.701691,98.203339 475.072449,100.690964 
	C475.244965,98.705826 475.601257,96.399315 476.275024,93.981827 
z"/>
<path fill="#C2DDF6" opacity="1.000000" stroke="none" 
	d="
M462.772156,120.886780 
	C462.250732,121.708023 461.455933,122.264496 460.375671,122.894608 
	C460.060608,122.540764 460.031006,122.113297 460.005127,121.363953 
	C460.276154,119.275154 460.543488,117.508224 460.937775,115.368546 
	C461.542725,116.871201 462.020752,118.746613 462.772156,120.886780 
z"/>
<path fill="#C2DDF6" opacity="1.000000" stroke="none" 
	d="
M437.735474,69.999176 
	C437.791901,68.232040 438.159637,66.364105 438.782745,64.249298 
	C438.707672,65.967735 438.377197,67.933052 437.735474,69.999176 
z"/>
<path fill="#CCDFF3" opacity="1.000000" stroke="none" 
	d="
M516.966980,115.848770 
	C520.841492,113.051819 519.041931,117.352234 520.062500,118.647430 
	C519.035828,118.057709 518.056763,117.119438 516.966980,115.848770 
z"/>
<path fill="#C2DDF6" opacity="1.000000" stroke="none" 
	d="
M433.729980,85.989594 
	C433.781586,84.229836 434.143768,82.363762 434.759399,80.248886 
	C434.688751,81.961151 434.364655,83.922211 433.729980,85.989594 
z"/>
<path fill="#C2DDF6" opacity="1.000000" stroke="none" 
	d="
M435.728210,77.991638 
	C435.773682,76.228416 436.130585,74.358765 436.742371,72.242386 
	C436.678040,73.958839 436.358826,75.922020 435.728210,77.991638 
z"/>
<path fill="#C2DDF6" opacity="1.000000" stroke="none" 
	d="
M431.731445,93.992500 
	C431.780365,92.231186 432.140533,90.363197 432.755554,88.247917 
	C432.687836,89.962364 432.365265,91.924095 431.731445,93.992500 
z"/>
<path fill="#C2DDF6" opacity="1.000000" stroke="none" 
	d="
M426.071411,116.755798 
	C426.011780,115.439278 426.255798,113.989601 426.745667,112.268661 
	C426.785980,113.539146 426.580505,115.080894 426.071411,116.755798 
z"/>
<path fill="#C2DDF6" opacity="1.000000" stroke="none" 
	d="
M431.763336,30.167747 
	C431.839081,31.176809 431.639954,32.331791 431.191772,33.738354 
	C431.124573,32.764511 431.306519,31.539089 431.763336,30.167747 
z"/>
<path fill="#B8D5EF" opacity="1.000000" stroke="none" 
	d="
M479.035370,89.313820 
	C478.883148,90.203598 478.372192,91.134789 477.567993,92.204353 
	C477.742035,91.346893 478.209320,90.351059 479.035370,89.313820 
z"/>
<path fill="#C2DDF6" opacity="1.000000" stroke="none" 
	d="
M410.337982,70.833099 
	C409.851471,70.467941 409.574951,69.961868 409.409454,69.170082 
	C409.862976,69.486977 410.205475,70.089584 410.337982,70.833099 
z"/>
<path fill="#C2DDF6" opacity="1.000000" stroke="none" 
	d="
M421.327545,68.953415 
	C421.547577,69.474678 421.506348,70.052788 421.225067,70.815872 
	C421.012115,70.337318 421.039185,69.673790 421.327545,68.953415 
z"/>
<path fill="#C2DDF6" opacity="1.000000" stroke="none" 
	d="
M419.229645,76.940880 
	C419.429016,77.453232 419.381836,78.030647 419.088074,78.789238 
	C418.888733,78.315590 418.935913,77.660759 419.229645,76.940880 
z"/>
<path fill="#C2DDF6" opacity="1.000000" stroke="none" 
	d="
M420.286377,72.954430 
	C420.502319,73.471390 420.463531,74.048920 420.180176,74.804451 
	C419.967621,74.326630 419.999634,73.670822 420.286377,72.954430 
z"/>
<path fill="#C2DDF6" opacity="1.000000" stroke="none" 
	d="
M411.565552,75.281906 
	C411.065674,74.874474 410.723511,74.164810 410.487396,73.165352 
	C410.970062,73.576927 411.346649,74.278297 411.565552,75.281906 
z"/>
<path fill="#C2DDF6" opacity="1.000000" stroke="none" 
	d="
M402.745636,108.142273 
	C403.217194,108.519341 403.470642,109.032906 403.614990,109.829514 
	C403.179779,109.501305 402.853638,108.890038 402.745636,108.142273 
z"/>
<path fill="#C2DDF6" opacity="1.000000" stroke="none" 
	d="
M442.627228,78.177017 
	C442.948181,78.751068 443.034241,79.513611 442.991028,80.643120 
	C442.705261,80.128555 442.548798,79.247032 442.627228,78.177017 
z"/>
<path fill="#B8D5EF" opacity="1.000000" stroke="none" 
	d="
M481.032501,87.355728 
	C481.038483,87.803154 480.749054,88.246895 480.191345,88.746094 
	C480.194397,88.318390 480.465729,87.835213 481.032501,87.355728 
z"/>
<path fill="#C2DDF6" opacity="1.000000" stroke="none" 
	d="
M412.814331,80.035965 
	C412.438232,79.792107 412.167511,79.215569 411.957367,78.316757 
	C412.318542,78.564079 412.619080,79.133682 412.814331,80.035965 
z"/>
<path fill="#CCDFF3" opacity="1.000000" stroke="none" 
	d="
M509.137207,120.911469 
	C509.305145,120.513260 509.810028,120.156715 510.634644,119.791580 
	C510.460938,120.173042 509.967590,120.563095 509.137207,120.911469 
z"/>
<path fill="#CCDFF3" opacity="1.000000" stroke="none" 
	d="
M506.876068,121.770836 
	C506.882935,121.515450 507.171082,121.296631 507.737732,121.104622 
	C507.729950,121.356750 507.443665,121.582077 506.876068,121.770836 
z"/>
<path fill="#C2DDF6" opacity="1.000000" stroke="none" 
	d="
M370.889038,28.841457 
	C370.983063,29.009527 370.716919,29.299671 370.520782,29.306704 
	C370.481415,29.100286 370.638184,28.886839 370.889038,28.841457 
z"/>
<path fill="#C2DDF6" opacity="1.000000" stroke="none" 
	d="
M370.058777,120.232475 
	C370.359375,120.053513 370.606293,120.247467 370.868805,120.769936 
	C370.677917,120.823830 370.384796,120.659485 370.058777,120.232475 
z"/>
<path fill="#CCDFF3" opacity="1.000000" stroke="none" 
	d="
M511.739777,119.593887 
	C511.697052,119.295143 511.977997,119.037216 512.546875,118.730049 
	C512.577698,118.998772 512.320618,119.316742 511.739777,119.593887 
z"/>
<path fill="#B8D5EF" opacity="1.000000" stroke="none" 
	d="
M480.327209,116.918793 
	C480.596252,116.813896 480.890930,117.008987 481.278687,117.458969 
	C481.032135,117.548828 480.692474,117.383804 480.327209,116.918793 
z"/>
<path fill="#C2DDF6" opacity="1.000000" stroke="none" 
	d="
M413.446106,82.267258 
	C413.132904,82.235062 412.954346,81.915108 412.812866,81.315796 
	C413.093536,81.350792 413.337128,81.665146 413.446106,82.267258 
z"/>
<path fill="#C2DDF6" opacity="1.000000" stroke="none" 
	d="
M418.051727,81.152557 
	C418.257080,81.147888 418.314392,81.613190 418.174042,81.800827 
	C417.871765,81.802818 417.702972,81.622017 417.562347,81.421455 
	C417.552155,81.406921 417.746918,81.248665 418.051727,81.152557 
z"/>
<path fill="#B8D5EF" opacity="1.000000" stroke="none" 
	d="
M484.023468,85.235725 
	C484.066589,85.505272 483.822479,85.765526 483.303772,86.049973 
	C483.264832,85.791588 483.500549,85.509010 484.023468,85.235725 
z"/>
<path fill="#B8D5EF" opacity="1.000000" stroke="none" 
	d="
M482.169037,86.403450 
	C482.363525,86.776428 482.159912,87.029182 481.607605,87.253525 
	C481.537231,86.997894 481.707916,86.683929 482.169037,86.403450 
z"/>
<path fill="#F1F7FC" opacity="1.000000" stroke="none" 
	d="
M284.000732,93.167892 
	C283.619873,104.219337 278.363739,110.168579 269.508026,110.006393 
	C264.593658,109.916382 260.555328,106.707390 259.840576,102.324272 
	C259.073364,97.619469 261.080505,94.232452 266.300232,92.616966 
	C271.809082,90.912003 277.474060,89.711403 283.624939,88.149773 
	C283.773651,89.948532 283.888611,91.339272 284.000732,93.167892 
z"/>
<path fill="#F1F7FC" opacity="1.000000" stroke="none" 
	d="
M493.006470,99.353394 
	C495.343140,96.786163 497.272675,93.708321 499.993561,92.633102 
	C505.175537,90.585327 510.809448,89.681160 516.236206,88.307114 
	C519.488708,98.741669 515.625000,107.072548 506.612885,109.550415 
	C499.080688,111.621368 493.547882,107.649582 493.006470,99.353394 
z"/>
</svg>